<?xml version="1.0" encoding="UTF-8" standalone="no"?>
<!-- Created with Inkscape (http://www.inkscape.org/) -->

<svg
   width="23.731709mm"
   height="23.731709mm"
   viewBox="0 0 23.731709 23.731709"
   version="1.1"
   id="svg5"
   sodipodi:docname="happy_face.svg"
   inkscape:version="1.1 (c68e22c387, 2021-05-23)"
   xmlns:inkscape="http://www.inkscape.org/namespaces/inkscape"
   xmlns:sodipodi="http://sodipodi.sourceforge.net/DTD/sodipodi-0.dtd"
   xmlns="http://www.w3.org/2000/svg"
   xmlns:svg="http://www.w3.org/2000/svg">
  <sodipodi:namedview
     id="namedview7"
     pagecolor="#ffffff"
     bordercolor="#666666"
     borderopacity="1.0"
     inkscape:pageshadow="2"
     inkscape:pageopacity="0.0"
     inkscape:pagecheckerboard="0"
     inkscape:document-units="mm"
     showgrid="false"
     inkscape:snap-smooth-nodes="true"
     inkscape:object-paths="true"
     inkscape:zoom="1.9628562"
     inkscape:cx="-13.500734"
     inkscape:cy="89.155792"
     inkscape:window-width="1920"
     inkscape:window-height="992"
     inkscape:window-x="-8"
     inkscape:window-y="-8"
     inkscape:window-maximized="1"
     inkscape:current-layer="layer1"
     lock-margins="true"
     fit-margin-top="0.5"
     fit-margin-left="0.5"
     fit-margin-right="0.5"
     fit-margin-bottom="0.5" />
  <defs
     id="defs2" />
  <g
     inkscape:label="Layer 1"
     inkscape:groupmode="layer"
     id="layer1"
     transform="translate(-3.7657242,-5.1001282)">
    <circle
       style="fill:#ffe680;stroke:#000000;stroke-width:1;stroke-linecap:round;stroke-linejoin:round;paint-order:normal"
       id="path846"
       cx="15.631578"
       cy="16.965982"
       r="10.865854" />
    <path
       style="fill:#aa8800;stroke:#000000;stroke-width:1.25571;stroke-linecap:round;stroke-linejoin:round;paint-order:normal"
       id="circle928"
       sodipodi:type="arc"
       sodipodi:cx="15.631578"
       sodipodi:cy="17.823797"
       sodipodi:rx="6.5746212"
       sodipodi:ry="6.4813557"
       sodipodi:start="0"
       sodipodi:end="3.1415927"
       sodipodi:arc-type="slice"
       d="m 22.2062,17.823797 a 6.5746212,6.4813557 0 0 1 -3.287311,5.613019 6.5746212,6.4813557 0 0 1 -6.574621,0 6.5746212,6.4813557 0 0 1 -3.2873108,-5.613019 h 6.5746208 z" />
    <path
       style="fill:none;stroke:#000000;stroke-width:1;stroke-linecap:round;stroke-linejoin:round;paint-order:stroke fill markers"
       d="M 12.456576,9.8042951 V 14.141107"
       id="path1065" />
    <path
       style="fill:none;stroke:#000000;stroke-width:1;stroke-linecap:round;stroke-linejoin:round;paint-order:stroke fill markers"
       d="M 18.80658,9.8042951 V 14.141107"
       id="path1147" />
    <path
       id="path1405"
       style="fill:#d45500;stroke:#000000;stroke-width:4.74599;stroke-linecap:round;stroke-linejoin:round;paint-order:normal"
       d="m 59.080078,75.365234 a 24.848962,24.496462 0 0 0 -12.423828,3.283204 24.848962,24.496462 0 0 0 -6.166016,4.964843 24.848962,24.496462 0 0 0 6.166016,4.966797 24.848962,24.496462 0 0 0 24.847656,0 24.848962,24.496462 0 0 0 6.171875,-4.966797 24.848962,24.496462 0 0 0 -6.171875,-4.964843 24.848962,24.496462 0 0 0 -12.423828,-3.283204 z"
       transform="scale(0.26458333)" />
  </g>
</svg>
