<?xml version="1.0" encoding="UTF-8" standalone="no"?>
<!-- Created with Inkscape (http://www.inkscape.org/) -->

<svg
   width="286.50031mm"
   height="142.73718mm"
   viewBox="0 0 286.5003 142.73717"
   version="1.1"
   id="svg1873"
   inkscape:version="1.1 (c68e22c387, 2021-05-23)"
   sodipodi:docname="scorched_background.svg"
   xmlns:inkscape="http://www.inkscape.org/namespaces/inkscape"
   xmlns:sodipodi="http://sodipodi.sourceforge.net/DTD/sodipodi-0.dtd"
   xmlns:xlink="http://www.w3.org/1999/xlink"
   xmlns="http://www.w3.org/2000/svg"
   xmlns:svg="http://www.w3.org/2000/svg">
  <sodipodi:namedview
     id="namedview1875"
     pagecolor="#ffffff"
     bordercolor="#666666"
     borderopacity="1.0"
     inkscape:pageshadow="2"
     inkscape:pageopacity="0.0"
     inkscape:pagecheckerboard="0"
     inkscape:document-units="mm"
     showgrid="false"
     inkscape:snap-global="false"
     fit-margin-top="0"
     fit-margin-left="0"
     fit-margin-right="0"
     fit-margin-bottom="0"
     inkscape:zoom="0.69397447"
     inkscape:cx="555.49594"
     inkscape:cy="304.04577"
     inkscape:window-width="1920"
     inkscape:window-height="992"
     inkscape:window-x="-8"
     inkscape:window-y="-8"
     inkscape:window-maximized="1"
     inkscape:current-layer="layer1" />
  <defs
     id="defs1870">
    <linearGradient
       inkscape:collect="always"
       id="linearGradient3805">
      <stop
         style="stop-color:#504416;stop-opacity:1;"
         offset="0"
         id="stop3801" />
      <stop
         style="stop-color:#241c1c;stop-opacity:1"
         offset="1"
         id="stop3803" />
    </linearGradient>
    <linearGradient
       inkscape:collect="always"
       id="linearGradient3375">
      <stop
         style="stop-color:#aa0000;stop-opacity:1;"
         offset="0"
         id="stop3371" />
      <stop
         style="stop-color:#ffcc00;stop-opacity:1"
         offset="1"
         id="stop3373" />
    </linearGradient>
    <linearGradient
       inkscape:collect="always"
       xlink:href="#linearGradient3375"
       id="linearGradient3377"
       x1="143.92491"
       y1="132.39606"
       x2="140.66911"
       y2="236.86076"
       gradientUnits="userSpaceOnUse" />
    <radialGradient
       inkscape:collect="always"
       xlink:href="#linearGradient3805"
       id="radialGradient4713"
       cx="640.13794"
       cy="-226.47414"
       fx="640.13794"
       fy="-226.47414"
       r="980.40234"
       gradientTransform="matrix(-1,0,0,-0.4588878,1235.0126,203.07529)"
       gradientUnits="userSpaceOnUse" />
  </defs>
  <g
     inkscape:label="Layer 1"
     inkscape:groupmode="layer"
     id="layer1"
     transform="translate(-2.0969191,-83.902954)">
    <rect
       style="fill:url(#linearGradient3377);stroke:none;stroke-width:0.999999;stroke-linecap:round;stroke-linejoin:round;stroke-miterlimit:4;stroke-dasharray:none;fill-opacity:1"
       id="rect2585"
       width="286.50031"
       height="142.73718"
       x="2.0969191"
       y="83.902954"
       ry="0" />
    <path
       id="path2011"
       style="fill:#6c5353;stroke:#ff9955;stroke-width:1;stroke-linecap:round;stroke-linejoin:round;stroke-miterlimit:4;stroke-dasharray:none"
       d="m 97.718582,96.290243 a 21.207477,12.772144 0 0 0 -13.973307,3.17449 30.214699,15.631578 0 0 0 -12.449886,-1.38959 30.214699,15.631578 0 0 0 -18.790584,3.397207 14.91672,10.198651 0 0 0 -8.612394,-1.872227 14.91672,10.198651 0 0 0 -14.136605,6.963907 26.783374,13.058087 0 0 0 -21.1775183,12.76615 26.783374,13.058087 0 0 0 26.7833773,13.05812 26.783374,13.058087 0 0 0 21.151681,-5.05861 30.214699,15.631578 0 0 0 14.782043,2.00866 30.214699,15.631578 0 0 0 12.392525,-1.38131 23.971597,10.722881 0 0 0 21.015256,5.57537 23.971597,10.722881 0 0 0 17.22169,-3.2706 22.398908,13.153402 0 0 0 8.46563,0.98289 22.398908,13.153402 0 0 0 14.68231,-3.2303 12.401146,6.8745483 0 0 0 6.16706,0.91519 12.401146,6.8745483 0 0 0 12.40131,-6.87451 12.401146,6.8745483 0 0 0 -11.39982,-6.85178 22.398908,13.153402 0 0 0 -21.85086,-10.26553 22.398908,13.153402 0 0 0 -11.77086,1.9663 21.207477,12.772144 0 0 0 -20.901048,-10.613827 z" />
    <path
       id="path2335"
       style="fill:#6c5353;stroke:#ff9955;stroke-width:1;stroke-linecap:round;stroke-linejoin:round;stroke-miterlimit:4;stroke-dasharray:none"
       d="m 33.169335,115.61323 a 16.584724,11.247112 0 0 0 -14.283367,5.5454 19.634786,12.390886 0 0 0 -1.019576,-0.0176 19.634786,12.390886 0 0 0 -19.6349768,12.39098 19.634786,12.390886 0 0 0 19.6349768,12.39097 19.634786,12.390886 0 0 0 13.428121,-3.35173 20.206676,9.8173933 0 0 0 14.075108,2.77967 20.206676,9.8173933 0 0 0 12.559959,-2.13113 14.392489,8.6736191 0 0 0 5.263761,0.60616 14.392489,8.6736191 0 0 0 14.39292,-8.67337 14.392489,8.6736191 0 0 0 -13.802775,-8.66614 12.724486,8.5783062 0 0 0 -12.265919,-6.29832 12.724486,8.5783062 0 0 0 -4.445207,0.54053 16.584724,11.247112 0 0 0 -13.903025,-5.11545 z" />
    <path
       id="path3221"
       style="fill:#6c5353;stroke:#ff9955;stroke-width:0.999997;stroke-linecap:round;stroke-linejoin:round;stroke-miterlimit:4;stroke-dasharray:none"
       d="m 278.47392,116.87817 a 21.207477,10.680114 0 0 1 13.97331,2.65452 30.214699,13.071184 0 0 1 12.44988,-1.16198 30.214699,13.071184 0 0 1 18.79058,2.84076 14.91672,8.5281499 0 0 1 8.6124,-1.56556 14.91672,8.5281499 0 0 1 14.1366,5.82324 26.783374,10.919221 0 0 1 21.17752,10.6751 26.783374,10.919221 0 0 1 -26.78338,10.91925 26.783374,10.919221 0 0 1 -21.15168,-4.23003 30.214699,13.071184 0 0 1 -14.78204,1.67965 30.214699,13.071184 0 0 1 -12.39252,-1.15506 23.971597,8.966513 0 0 1 -21.01526,4.66215 23.971597,8.966513 0 0 1 -17.22169,-2.73489 22.398908,10.998924 0 0 1 -8.46563,0.8219 22.398908,10.998924 0 0 1 -14.68231,-2.70119 12.401146,5.7485229 0 0 1 -6.16706,0.76528 12.401146,5.7485229 0 0 1 -12.40131,-5.74849 12.401146,5.7485229 0 0 1 11.39982,-5.72948 22.398908,10.998924 0 0 1 21.85086,-8.58407 22.398908,10.998924 0 0 1 11.77086,1.64422 21.207477,10.680114 0 0 1 20.90105,-8.87532 z" />
    <path
       id="path2561"
       style="fill:#6c5353;stroke:#ff9955;stroke-width:1;stroke-linecap:round;stroke-linejoin:round;stroke-miterlimit:4;stroke-dasharray:none"
       d="m 188.91359,130.10103 a 16.584724,11.247112 0 0 1 14.28337,5.5454 19.634786,12.390886 0 0 1 1.01958,-0.0176 19.634786,12.390886 0 0 1 19.63497,12.39098 19.634786,12.390886 0 0 1 -19.63497,12.39097 19.634786,12.390886 0 0 1 -13.42812,-3.35173 20.206676,9.8173933 0 0 1 -14.07511,2.77967 20.206676,9.8173933 0 0 1 -12.55996,-2.13113 14.392489,8.6736191 0 0 1 -5.26376,0.60616 14.392489,8.6736191 0 0 1 -14.39292,-8.67337 14.392489,8.6736191 0 0 1 13.80277,-8.66614 12.724486,8.5783062 0 0 1 12.26592,-6.29832 12.724486,8.5783062 0 0 1 4.44521,0.54053 16.584724,11.247112 0 0 1 13.90302,-5.11545 z" />
    <path
       id="path2777"
       style="fill:url(#radialGradient4713);stroke:none;stroke-width:3.77953;stroke-linecap:round;stroke-linejoin:round;stroke-miterlimit:4;stroke-dasharray:none;fill-opacity:1"
       d="M 257.63477 394.65625 A 619.09072 141.49494 0 0 0 -361.45508 536.15234 A 619.09072 141.49494 0 0 0 257.63477 677.64648 A 619.09072 141.49494 0 0 0 604.95117 653.25 A 619.09072 141.49494 0 0 0 980.25977 682.23047 A 619.09072 141.49494 0 0 0 1599.3496 540.73633 A 619.09072 141.49494 0 0 0 980.25977 399.24023 A 619.09072 141.49494 0 0 0 632.98047 423.63281 A 619.09072 141.49494 0 0 0 257.63477 394.65625 z "
       transform="matrix(0.26458333,0,0,0.26458333,2.0969191,83.902954)" />
  </g>
</svg>
